<?xml version="1.0" encoding="utf-8"?>
<!-- Generator: Adobe Illustrator 25.2.3, SVG Export Plug-In . SVG Version: 6.00 Build 0)  -->
<svg version="1.1" id="Layer_1" xmlns="http://www.w3.org/2000/svg" xmlns:xlink="http://www.w3.org/1999/xlink" x="0px" y="0px"
	 viewBox="0 0 1000 250" style="enable-background:new 0 0 1000 250;" xml:space="preserve">
<g>
	<path d="M38.5,116.8L26,109.5l1.4-3c4.3-3.8,39.6-11.9,46.1-11.7l-1.6,19.8l0.5,0.3c14.6-10.6,29-20.1,42.5-20.1
		c16,0,26.6,10,30.3,20.9c15.4-11.7,30.1-20.9,43.9-20.9c24.7,0,35,20.9,35,40.4v65.8c0,1.6,2.4,3,6.2,5.7l11.7,7.9l-1.1,3.3
		c-11.1,0-21.9-0.5-32.8-0.5c-10.8,0-21.4,0.5-32.2,0.5l0.8-3.3l11.7-10.8c0.3-8.4,1.1-29.3,1.1-67.5c0-14.4-11.7-22.2-20.6-22.2
		c-7.6,0-13.5,2.7-21.9,8.4c1.4,4.1,1.9,12.7,1.9,19.2v62.1l14.1,10.6l-1.4,3.5c-9.8,0-19.8-0.5-29.8-0.5c-11.1,0-21.9,0.5-33.3,0.5
		l0.8-3.3l13.8-10.8c0.8-1.6,1.1-26,1.1-68.8c0-11.7-9.5-20.6-21.4-20.6c-5.1,0-11.7,2.2-19.2,7.3c0,22.5,0,78.6,1.1,82.1L87,214.4
		l-1.4,3.5c-10.3,0-20.9-0.5-31.4-0.5c-10.8,0-21.9,0.5-33.3,0.5l0.8-3.3l15.7-10.8c0.8-3.3,1.1-27.1,1.1-63.1V116.8z"/>
	<path d="M282.3,154.5c-0.3,1.1-0.3,2.2-0.3,3.3c-0.3,28.7,14.9,48.8,38.5,48.8c2.4,0,5.1-0.3,7.3-0.8c7.6-6.2,19.2-14.1,25.5-17.1
		l1.1,2.2c-1.9,9.8-14.6,21.9-19.5,24.7c-5.4,2.2-17.1,5.4-27.9,5.4c-36.9,0-61.5-23.3-61.5-61.5c0-37.9,29.5-64.5,62.3-64.5
		c27.1,0,49.6,16.5,49.6,47.7c0,3-0.8,6.2-2.7,7.3c-2.4,1.4-12.7,4.6-28.7,4.6H282.3z M321.6,145.8c0.8-1.9,1.6-4.9,1.6-9.5
		c0-19.8-5.7-34.1-17.6-34.1c-15.2,0-23,27.4-23.3,43.6H321.6z"/>
	<path d="M492.1,200.3c6.8,8.1,14.4,11.9,18.4,13.5l-0.8,2.7c-2.2,1.6-10.6,4.3-19,4.3c-16.5,0-27.4-5.7-31.7-14.4h-0.3
		c-4.9,2.7-20.3,14.4-33.3,14.4c-24.7,0-55.3-20.3-55.3-58.5c0-46.3,38.7-67.5,68.6-67.5c4.1,0,11.4,3,18.2,7.3l0.5-0.3
		c0-15.7-0.3-39-0.8-55.5L439,38.5l0.8-2.7c12.5-4.1,36-7.6,53.1-8.4c-0.5,24.4-0.8,53.9-0.8,83.2V200.3z M457.4,110
		c-3.3-1.9-8.4-3.3-13-3.3c-17.3,0-37.4,18.4-37.4,49.6c0,29.5,17.6,46.6,37.1,46.6c4.1,0,8.7-1.1,13.3-3V110z"/>
	<path d="M515.7,103.3l1.4-2.7c11.9-2.4,33.6-4.1,49.6-4.1c-0.8,13.3-1.9,34.7-1.9,71.5c0,15.2,1.1,22.8,4.6,27.1
		c3,3.5,8.1,6.5,15.7,6.5c5.4,0,13.8-1.9,20.1-8.7v-76.4c0-2.7-1.1-3.3-19.2-13.3l1.9-3c17.1-2.2,37.4-3.8,52.8-3.8
		c-0.8,12.2-0.8,30.9-0.8,102.4c5.1,8.4,14.9,12.2,18.2,13.5l-0.5,2.2c-2.2,2.4-12.2,6-21.1,6c-12.5,0-26-3.8-29.8-19.8h-0.5
		c-10,11.9-21.4,20.1-37.7,20.1c-10.3,0-20.6-3.5-26.8-9.5c-7.9-7.3-11.7-17.3-11.7-30.6c0-21.1,0.5-49.3,0.5-66.7L515.7,103.3z"/>
	<path d="M730,214.4l-1.6,3.5c-11.4,0-22.5-0.5-34.1-0.5c-10.8,0-21.9,0.5-33.1,0.5l0.8-3.3l14.6-10c0.5-10.3,1.1-28.5,1.1-100.3
		c0-21.9,0-50.4-0.8-59.6l-16-7l1.1-3.3c14.4-3,41.2-7,51.2-7c-0.5,25.2-0.8,52-0.8,80.5c0,58.5,0.3,76.7,0.8,96.7L730,214.4z
		 M798.9,221.7c-19.8-0.5-37.1-4.9-46.6-14.1c-9.2-9.5-25.2-33.6-35.8-52.8v-1.9c5.7-6.2,25.5-29.8,34.7-42.8l7.3-15.4
		c19.8,0,33.3,2.7,37.9,4.6l-2.2,3.8c-7.9,3.3-17.9,7.6-36,13.5c-2.4,2.4-9.5,10-14.9,15.7v0.8c17.3,28.2,40.4,62.3,57.2,87.3
		L798.9,221.7z"/>
	<path d="M812.3,103.3c4.3-1.6,31.2-7.6,48-8.7v55.8c0,30.1,0.5,46.3,0.8,53.7l17.6,10.3l-0.8,3.5c-13.3,0-22.2-0.5-35.5-0.5
		c-10.8,0-23.6,0.5-33.3,0.5l0.5-3.5l14.9-10.3c0.5-10.8,1.1-32.8,1.1-54.2v-35.8l-14.1-8.1L812.3,103.3z"/>
	<path d="M955.1,101.6c5.1-3.8,11.1-6.8,16-8.1l2.2,1.1c-2.4,17.9-5.4,30.3-7.6,35.5l-2.7,0.8c-3.3-4.6-7.3-13.6-10-21.9
		c-1.9-1.1-6.8-4.6-16.3-4.6c-12.2,0-19,8.4-19,16.3c0,5.1,3.5,9.8,10.6,13.3c14.6,7.3,23,11.9,32.2,16.5
		c16.3,8.7,19.5,19.2,19.5,30.1c0,32.8-32.8,40.4-51.2,40.4c-14.4,0-29.5-4.6-40.1-11.1c0.5-9.5,5.1-29,7-33.3l2.4-0.8
		c3.8,6,13.3,27.6,17.1,36.3c3.5,1.1,8.1,1.9,13.5,1.9c12.2,0,22.5-8.7,22.5-19.2c0-5.4-2.2-9.5-10-13.8c-7.3-3.8-15.2-8.1-24.9-13
		c-15.2-7.6-24.9-18.2-24.9-34.4c0-19,14.1-38.5,42.8-38.5C940.5,94.9,948.1,96.8,955.1,101.6z"/>
	<path d="M546.5,74.3l8.7-21.9l13.5,0.3l56.1-3.3v1.9l-11.4,14.6L546.5,74.3z"/>
	<polygon points="837.6,39.2 835.8,40.4 826.7,50.9 826.1,53.5 830.8,67.1 832.9,68.8 846.5,71.4 849.5,70.3 858.1,60.3 859,57.1 
		854.5,44.2 852.3,42 	"/>
</g>
</svg>
